<?xml version="1.0" standalone="no"?>
<!DOCTYPE svg PUBLIC "-//W3C//DTD SVG 20010904//EN"
 "http://www.w3.org/TR/2001/REC-SVG-20010904/DTD/svg10.dtd">
<svg version="1.0" xmlns="http://www.w3.org/2000/svg"
 width="1024.000000pt" height="1024.000000pt" viewBox="0 0 1024.000000 1024.000000"
 preserveAspectRatio="xMidYMid meet">

<g transform="translate(0.000000,1024.000000) scale(0.100000,-0.100000)"
fill="#000000" stroke="none">
<path d="M4892 9410 c-206 -45 -394 -148 -544 -300 -174 -176 -283 -392 -327
-648 l-16 -97 -40 -13 c-95 -30 -131 -47 -171 -84 -68 -63 -76 -95 -72 -305 3
-165 5 -184 24 -209 31 -43 65 -63 114 -72 l45 -7 5 -65 c3 -36 11 -75 18 -88
18 -32 71 -62 110 -62 l32 0 0 -2440 0 -2439 -37 -7 c-81 -14 -116 -57 -123
-153 l-5 -66 -46 -6 c-62 -9 -94 -32 -119 -83 -18 -37 -20 -61 -20 -207 0 -90
5 -182 11 -204 7 -26 28 -57 59 -87 40 -39 64 -52 133 -73 l85 -27 7 -56 c9
-77 48 -223 84 -309 119 -290 384 -536 681 -631 461 -149 983 27 1250 422 98
146 167 316 190 471 7 44 15 86 19 94 4 7 31 21 61 31 113 35 175 81 204 152
24 57 23 379 -2 428 -21 42 -72 78 -122 86 -37 6 -37 6 -44 66 -10 97 -54 148
-130 148 l-36 0 0 2445 0 2445 34 0 c75 0 136 75 136 166 l0 51 42 6 c48 6 84
30 116 78 23 33 23 39 20 230 -3 195 -3 196 -31 238 -34 51 -76 77 -176 112
l-75 25 -13 88 c-66 457 -389 830 -818 942 -140 37 -376 43 -513 14z m435 -95
c276 -58 519 -234 664 -481 74 -126 123 -264 136 -385 l6 -57 -140 28 c-240
49 -460 71 -759 77 -379 8 -717 -20 -1008 -81 -61 -13 -112 -22 -114 -21 -2 2
4 42 13 90 83 447 438 790 874 845 85 11 241 4 328 -15z m269 -936 c385 -38
717 -117 798 -189 l31 -28 3 -171 c3 -160 2 -171 -17 -190 -28 -28 -39 -27
-179 13 -641 185 -1493 190 -2162 14 -206 -54 -211 -54 -235 -28 -17 18 -21
40 -23 123 -2 55 -1 130 3 166 6 55 12 70 39 96 50 51 212 102 471 150 404 73
833 88 1271 44z m-51 -543 c203 -26 486 -84 458 -93 -7 -3 -80 3 -163 11 -166
18 -452 21 -330 5 251 -35 477 -87 616 -144 97 -39 101 -37 107 50 l3 60 2
-72 c3 -94 -9 -102 -106 -74 -250 72 -530 110 -882 118 -435 10 -870 -35
-1133 -117 -75 -24 -81 -24 -101 -4 -18 18 -24 150 -6 139 6 -3 10 -33 10 -65
0 -32 4 -61 9 -65 6 -3 47 10 93 29 144 59 306 99 548 135 l125 19 -115 1
c-63 0 -182 -6 -265 -14 -82 -8 -157 -15 -165 -14 -53 2 241 67 403 89 231 32
665 35 892 6z m-722 -368 c4 -66 7 -226 7 -355 0 -128 2 -233 3 -233 2 0 69
31 148 69 79 38 189 88 244 111 129 55 332 157 418 212 l67 43 0 122 0 123 25
0 c24 0 24 -1 27 -102 l3 -103 71 70 c39 39 76 79 81 89 11 19 12 19 84 0 l74
-19 3 -2477 2 -2477 -37 -10 c-143 -38 -411 -78 -583 -87 l-125 -6 130 65 c72
36 156 82 188 102 l57 37 0 281 c-1 155 2 400 4 545 3 144 3 262 0 262 -3 0
-24 -13 -47 -29 -76 -51 -209 -118 -429 -215 -119 -52 -260 -117 -313 -144
l-97 -48 0 -423 1 -422 -67 3 -67 3 -3 378 c-1 207 -6 377 -10 377 -10 0 -109
-68 -160 -109 l-43 -35 1 -290 c1 -316 5 -293 -52 -287 -21 2 -19 4 10 17 37
16 39 20 12 20 -11 0 -20 -4 -20 -9 0 -4 -4 -5 -10 -2 -6 4 -10 98 -10 248
l-1 242 -41 -45 c-102 -112 -148 -219 -148 -345 0 -87 -5 -97 -40 -75 -13 8
-15 263 -16 2187 -1 1198 2 2311 5 2473 l6 294 44 13 c25 7 46 11 48 9 2 -2
-8 -27 -22 -57 l-25 -54 1 -540 0 -540 30 60 c33 65 63 108 121 171 l38 41 2
474 3 473 33 7 32 6 2 -176 c2 -97 1 -300 -1 -451 l-4 -274 21 14 c11 8 59 41
105 72 l85 57 1 278 c0 153 1 331 1 396 l0 117 63 0 64 0 6 -122z m-615 -5037
c294 -70 607 -96 1032 -88 382 8 544 26 822 94 177 43 179 43 177 -56 l-2 -66
-7 63 c-4 34 -9 65 -12 67 -3 3 -36 -7 -74 -21 -38 -15 -114 -39 -168 -55 -88
-26 -161 -41 -451 -94 l-80 -14 150 5 c83 3 206 12 275 19 151 18 166 18 117
0 -53 -20 -258 -60 -412 -81 -163 -23 -698 -26 -870 -6 -185 22 -489 84 -473
96 1 2 71 -2 153 -9 208 -18 391 -27 384 -20 -4 3 -78 17 -165 30 -179 28
-345 70 -482 122 -52 19 -96 32 -100 29 -3 -3 -9 -36 -12 -74 l-7 -67 -2 67
c-1 74 15 104 53 95 12 -3 81 -19 154 -36z m-158 -220 c708 -181 1534 -176
2201 15 175 50 179 46 179 -178 0 -177 -8 -201 -81 -235 -108 -51 -377 -109
-669 -145 -162 -20 -232 -23 -555 -23 -296 0 -399 4 -515 18 -483 60 -748 130
-780 206 -6 15 -12 97 -13 183 -2 153 -2 157 22 182 14 15 32 24 40 21 9 -2
86 -22 171 -44z m221 -596 c526 -99 1206 -99 1719 1 69 13 131 24 137 24 14 0
11 -25 -17 -140 -58 -233 -192 -437 -381 -580 -410 -308 -967 -266 -1325 102
-126 128 -209 272 -258 440 -33 117 -41 178 -23 178 8 0 74 -11 148 -25z"/>
<path d="M4858 9180 c-25 -17 -77 -64 -116 -104 -109 -114 -174 -220 -222
-356 -26 -71 -46 -104 -35 -55 21 90 28 116 52 175 48 116 143 254 221 320
l37 31 -33 -18 c-109 -60 -279 -294 -332 -456 -22 -70 -23 -29 0 45 31 103 82
204 142 279 45 56 46 59 14 29 -66 -61 -158 -192 -207 -295 -54 -110 -62 -111
-25 -2 34 101 91 199 161 275 49 54 54 62 25 42 -65 -45 -182 -165 -229 -236
-59 -88 -104 -195 -125 -296 -18 -88 -20 -118 -7 -118 5 0 47 9 93 20 135 32
341 67 523 90 93 11 171 22 172 24 4 4 -209 16 -289 16 -68 0 -68 0 -68 28 0
47 20 143 46 222 34 106 104 219 183 301 38 38 68 69 66 69 -1 0 -22 -14 -47
-30z"/>
<path d="M5396 9153 c112 -111 205 -292 234 -460 19 -104 20 -103 -107 -104
-59 -1 -153 -4 -208 -8 l-100 -6 90 -8 c158 -14 375 -47 574 -88 106 -22 196
-37 199 -35 7 8 -15 120 -39 195 -23 74 -68 166 -112 231 -42 62 -153 176
-207 213 l-45 31 56 -61 c72 -79 123 -162 160 -263 41 -113 36 -120 -14 -20
-57 115 -106 186 -183 267 l-65 68 45 -57 c62 -79 92 -133 125 -224 26 -74 47
-153 37 -143 -3 2 -20 41 -39 87 -70 164 -218 358 -319 416 -23 14 -13 0 38
-50 70 -68 133 -152 171 -229 44 -88 99 -286 74 -271 -5 3 -12 18 -16 33 -17
69 -71 185 -123 263 -60 91 -195 233 -252 264 -30 17 -26 10 26 -41z"/>
<path d="M5380 8320 c8 -5 26 -10 39 -10 56 0 367 -53 501 -86 137 -33 343
-94 337 -100 -2 -2 -72 10 -157 25 -141 26 -498 66 -507 57 -3 -2 29 -9 69
-16 177 -28 562 -133 592 -161 5 -5 -6 -4 -25 1 -59 17 -430 68 -534 74 -55 2
-89 2 -75 0 14 -3 103 -21 199 -40 156 -31 437 -111 427 -122 -3 -2 -37 3 -78
12 -102 22 -320 53 -463 65 -177 15 -391 24 -384 16 4 -3 110 -19 235 -35 327
-41 611 -101 768 -161 74 -28 76 -24 76 153 0 82 -4 158 -10 168 -27 50 -446
136 -780 160 -187 13 -250 13 -230 0z"/>
<path d="M4555 8313 c-182 -16 -485 -72 -618 -113 -98 -31 -97 -29 -97 -205 0
-120 3 -155 14 -164 12 -10 33 -6 103 18 214 73 512 129 854 160 123 11 240
22 259 24 19 2 -27 5 -102 5 -247 3 -572 -26 -833 -73 -71 -13 -131 -22 -133
-21 -13 13 300 98 523 142 l120 24 -85 -6 c-125 -8 -237 -22 -404 -50 -82 -13
-150 -23 -152 -21 -5 4 233 79 336 106 69 18 181 41 274 56 21 3 36 8 34 10
-9 10 -402 -37 -517 -61 -68 -14 -125 -23 -127 -21 -7 7 102 44 223 77 154 41
331 76 503 99 l145 19 -140 -1 c-77 0 -158 -2 -180 -4z"/>
<path d="M5988 7131 c-24 -51 -126 -169 -182 -210 l-46 -35 0 -548 c0 -301 4
-548 8 -548 16 0 130 110 167 161 77 104 75 86 76 680 0 292 -1 532 -3 534 -2
2 -11 -14 -20 -34z"/>
<path d="M5685 6834 c-54 -42 -240 -138 -444 -229 -124 -56 -270 -124 -325
-151 l-98 -49 7 -540 c4 -297 8 -541 10 -543 2 -2 29 10 61 26 33 16 138 64
234 106 287 127 370 166 478 228 l102 60 3 411 c3 586 3 697 -3 697 -3 0 -14
-8 -25 -16z"/>
<path d="M4610 6281 c-41 -28 -87 -61 -103 -74 l-27 -23 2 -542 3 -542 85 60
c47 32 93 65 103 72 16 12 17 45 15 557 l-3 543 -75 -51z"/>
<path d="M4367 6080 c-58 -68 -102 -139 -126 -203 -20 -56 -21 -71 -21 -585
l0 -527 44 77 c24 42 66 103 94 134 l51 57 3 286 c2 157 1 403 -2 546 l-5 259
-38 -44z"/>
<path d="M6002 5602 c-6 -35 -83 -136 -160 -212 l-87 -85 5 -545 5 -545 86 85
c65 65 94 103 122 160 l37 75 -2 540 c-2 297 -4 534 -6 527z"/>
<path d="M5630 5234 c-88 -54 -241 -129 -430 -209 -74 -32 -189 -84 -255 -117
l-120 -60 3 -541 c2 -298 5 -543 6 -545 2 -1 63 27 137 62 74 35 195 89 269
121 169 71 309 140 400 196 l70 44 3 305 c3 479 2 790 -3 790 -3 0 -39 -21
-80 -46z"/>
<path d="M4580 4701 l-95 -68 -2 -548 c-2 -536 -2 -547 17 -533 10 7 57 39
104 71 l86 59 0 544 c0 299 -3 544 -7 544 -5 0 -51 -31 -103 -69z"/>
<path d="M4346 4493 c-25 -32 -63 -92 -84 -133 l-37 -74 -1 -533 c0 -293 0
-533 1 -533 1 0 19 29 40 64 20 34 61 91 91 125 l54 62 0 540 c0 296 -4 539
-8 539 -5 0 -30 -26 -56 -57z"/>
<path d="M5987 4016 c-23 -57 -110 -161 -175 -211 l-52 -39 0 -543 c0 -626
-13 -573 109 -452 47 48 83 95 104 138 l32 66 3 420 c1 231 1 475 0 542 l-3
123 -18 -44z"/>
<path d="M3846 2194 c-3 -9 -6 -81 -6 -160 0 -138 1 -146 23 -168 42 -42 370
-109 657 -135 104 -10 396 -13 325 -4 -16 2 -84 11 -150 19 -119 15 -348 59
-468 90 -93 24 -249 75 -245 80 3 2 47 -5 98 -17 118 -25 604 -80 590 -66 -3
3 -54 12 -115 21 -159 25 -577 137 -563 152 2 2 47 -5 99 -16 108 -21 323 -47
454 -55 l90 -5 -110 20 c-137 25 -377 85 -465 116 -72 26 -63 26 120 -4 179
-30 426 -52 640 -57 102 -2 178 -2 170 0 -8 2 -107 14 -220 25 -321 32 -677
100 -859 164 -54 20 -57 20 -65 0z"/>
<path d="M6325 2194 c-161 -60 -525 -131 -845 -164 -107 -11 -199 -23 -205
-25 -20 -10 335 4 490 20 88 8 227 27 309 40 82 14 151 23 153 21 17 -17 -414
-124 -602 -149 -19 -3 -12 -5 20 -5 88 -3 388 34 529 64 38 8 70 13 73 11 12
-13 -307 -106 -467 -136 -215 -41 -214 -40 -120 -35 135 8 397 42 499 64 51
11 95 19 98 17 5 -6 -97 -42 -202 -71 -154 -43 -459 -99 -650 -120 -22 -2 48
-3 155 -1 272 5 617 57 777 117 67 25 70 34 63 220 -6 159 -5 158 -75 132z"/>
<path d="M4176 1528 c36 -188 104 -317 243 -461 108 -112 152 -142 79 -52 -63
75 -118 173 -149 262 -30 89 -22 85 32 -17 74 -137 172 -270 229 -307 14 -9 2
9 -27 42 -61 68 -122 180 -152 279 -31 100 -25 102 18 6 68 -151 155 -276 248
-356 82 -70 111 -81 41 -15 -115 106 -209 270 -243 419 -20 88 -14 105 10 30
25 -76 90 -203 140 -273 50 -71 189 -207 237 -231 30 -15 28 -13 -14 25 -67
60 -135 153 -179 247 -44 92 -82 237 -77 292 l3 37 177 5 c97 3 179 8 182 11
4 3 -38 9 -91 13 -143 10 -344 40 -538 80 -93 20 -173 36 -176 36 -4 0 0 -32
7 -72z"/>
<path d="M5870 1559 c-177 -36 -473 -79 -552 -79 -20 0 -40 -4 -43 -10 -4 -7
51 -10 157 -10 90 0 173 -3 186 -6 27 -8 28 -26 7 -123 -34 -164 -120 -325
-231 -436 -88 -88 -13 -40 92 58 118 111 202 244 254 400 12 38 24 67 26 64 2
-2 -1 -30 -7 -63 -28 -151 -135 -343 -252 -450 -34 -31 -51 -51 -38 -44 13 6
59 46 102 87 103 99 174 206 246 373 19 45 22 49 17 20 -19 -106 -72 -218
-152 -325 l-45 -60 37 35 c63 59 154 186 201 283 51 104 56 103 21 -1 -37
-108 -84 -189 -151 -259 -33 -35 -58 -63 -56 -63 12 0 118 90 164 140 105 113
169 236 207 392 23 97 25 118 8 117 -7 -1 -96 -19 -198 -40z"/>
</g>
</svg>
